HIERARCHY
ROOT ui
{
	 OFFSET 0 0 0
	 CHANNELS 3 XPosition YPosition Z Position
	 EndSite
	 {
	 OFFSET 0 -1 0
	 }
}
ROOT li
{
	 OFFSET 0 0 0
	 CHANNELS 3 XPosition YPosition Z Position
	 EndSite
	 {
	 OFFSET 0 -1 0
	 }
}
ROOT ul
{
	 OFFSET 0 0 0
	 CHANNELS 3 XPosition YPosition Z Position
	 EndSite
	 {
	 OFFSET 0 -1 0
	 }
}
ROOT ll
{
	 OFFSET 0 0 0
	 CHANNELS 3 XPosition YPosition Z Position
	 EndSite
	 {
	 OFFSET 0 -1 0
	 }
}
ROOT tt
{
	 OFFSET 0 0 0
	 CHANNELS 3 XPosition YPosition Z Position
	 EndSite
	 {
	 OFFSET 0 -1 0
	 }
}
ROOT tb
{
	 OFFSET 0 0 0
	 CHANNELS 3 XPosition YPosition Z Position
	 EndSite
	 {
	 OFFSET 0 -1 0
	 }
}
ROOT td
{
	 OFFSET 0 0 0
	 CHANNELS 3 XPosition YPosition Z Position
	 EndSite
	 {
	 OFFSET 0 -1 0
	 }
}
ROOT v
{
	 OFFSET 0 0 0
	 CHANNELS 3 XPosition YPosition Z Position
	 EndSite
	 {
	 OFFSET 0 -1 0
	 }
}
ROOT bn
{
	 OFFSET 0 0 0
	 CHANNELS 3 XPosition YPosition Z Position
	 EndSite
	 {
	 OFFSET 0 -1 0
	 }
}
MOTION
Frames: 24
Frame Time: 0.002
-0.0013860549926757813	-0.0014269529581069946	0		0.48174127197265626	-2.369069580078125	0		-1.061442626953125	-3.8130900263786316E-4	0		-0.8523771362304687	-2.283904296875	0		1.2309547119140625	-0.594468505859375	0		2.94493505859375	-0.16591705322265626	0		4.53298046875	-0.17096255493164061	0		5.5511533203125	0.10248544311523437	0		-0.20634866333007812	5.899283203125	0		
-0.004579620838165283	-0.004422778129577636	0		0.4818818359375	-2.3690380859375	0		-1.0556593017578124	-0.005612728118896485	0		-0.8892225341796876	-2.28162646484375	0		1.1019342041015625	-0.587892578125	0		2.953772705078125	-0.16767367553710938	0		4.53775146484375	-0.17847222900390625	0		5.5617880859375	0.08603820037841797	0		-0.24132318115234375	5.89360986328125	0		
-0.004755832195281982	-0.0044642739295959475	0		0.45604849243164064	-2.364729736328125	0		-1.05583544921875	-0.005786157131195068	0		-0.8501152954101563	-2.28221240234375	0		1.1048643798828126	-0.5848287353515625	0		2.958772216796875	-0.15340025329589843	0		4.5306640625	-0.17186616516113282	0		5.56076708984375	0.10170558929443359	0		-0.24223973083496095	5.89353857421875	0		
0.0311649112701416	0.00508882999420166	0		0.4861495666503906	-2.365053466796875	0		-1.043902099609375	0.004901509761810302	0		-0.8370892333984375	-2.28850927734375	0		1.23368603515625	-0.5911602783203125	0		2.9534501953125	-0.16703123474121093	0		4.53965087890625	-0.15745962524414062	0		5.55549072265625	0.09539373779296875	0		-0.24315103149414063	5.89345849609375	0		
0.0019397200345993041	0.0023510620594024657	0		0.4862375183105469	-2.365052490234375	0		-1.0562152099609374	-0.006148574829101562	0		-0.8469228515625	-2.2805576171875	0		1.233562744140625	-0.5910702514648437	0		2.947352783203125	-0.1596715850830078	0		4.53032421875	-0.1708772430419922	0		5.5503837890625	0.10505224609375	0		-0.2099833221435547	5.8990029296875	0		
0.0017414319515228272	0.002289931058883667	0		0.484288818359375	-2.36703662109375	0		-1.0564124755859374	-0.006330832004547119	0		-0.8498811645507812	-2.28268359375	0		1.2304002685546875	-0.5939579467773437	0		2.969096435546875	-0.16663174438476563	0		4.5362314453125	-0.16248500061035157	0		5.5601728515625	0.10551869201660156	0		-0.21085658264160156	5.89891748046875	0		
-0.0055355138778686525	-0.004699152946472168	0		0.482322998046875	-2.369026611328125	0		-1.062560791015625	-0.0014465490579605102	0		-0.851856201171875	-2.28481884765625	0		1.2302623291015624	-0.5938880615234375	0		2.930988525390625	-0.15896826171875	0		4.52504736328125	-0.16193777465820314	0		5.55486328125	0.0971141357421875	0		-0.245763916015625	5.8931923828125	0		
-0.0027113180160522462	-0.0017969930171966553	0		0.46631695556640623	-2.37287353515625	0		-1.0568214111328125	-0.00668399715423584	0		-0.8738388671875	-2.28573974609375	0		1.23314697265625	-0.590859130859375	0		2.957648193359375	-0.17301698303222657	0		4.53468701171875	-0.1776436309814453	0		5.5546455078125	0.09761844635009766	0		-0.2786587219238281	5.885439453125	0		
0.008179615020751953	0.008022309303283692	0		0.49938076782226565	-2.368239013671875	0		-1.044919677734375	0.0040241961479187014	0		-0.832815185546875	-2.284316650390625	0		1.1179652099609374	-0.5926047973632812	0		2.954702392578125	-0.14876962280273437	0		4.5257001953125	-0.157182861328125	0		5.56357958984375	0.11298878479003906	0		-0.27943356323242186	5.88534765625	0		
8.985059857368469E-4	0.0020330879688262938	0		0.4584347229003906	-2.36183349609375	0		-1.0591585693359375	0.002014688014984131	0		-0.8468011474609375	-2.281307861328125	0		1.2328236083984374	-0.5907608032226562	0		2.9463935546875	-0.1584892120361328	0		4.53545361328125	-0.16095112609863282	0		5.54928955078125	0.10756050872802735	0		-0.24808845520019532	5.8929287109375	0		
6.734859943389892E-4	0.001973536014556885	0		0.4843468322753906	-2.367123291015625	0		-1.0574761962890624	-0.007150111198425293	0		-0.8498630981445312	-2.283404541015625	0		1.1037044677734376	-0.5843956298828125	0		2.930182373046875	-0.1581476593017578	0		4.52915966796875	-0.1685842742919922	0		5.55396337890625	0.09889579010009765	0		-0.2487867431640625	5.89284912109375	0		
-0.006630046844482422	-0.005010825157165527	0		0.45630899047851564	-2.364858642578125	0		-1.0577080078125	-0.007283433914184571	0		-0.85194921875	-2.285502197265625	0		1.229426513671875	-0.5936569213867188	0		2.983877197265625	-0.16654093933105468	0		4.53993896484375	-0.16842251586914062	0		5.5537236328125	0.09924453735351563	0		-0.24944873046875	5.8927744140625	0		
-0.003840203046798706	-0.002094491004943848	0		0.49312042236328124	-2.375255859375	0		-1.0579482421875	-0.007405628204345703	0		-0.914046630859375	-2.28598193359375	0		1.0593248291015624	-0.5829053344726562	0		2.95186181640625	-0.14507400512695312	0		4.52975048828125	-0.1640754852294922	0		5.5534765625	0.09955701446533204	0		-0.24908709716796876	5.8916953125	0		
0.002980710983276367	0.004785797119140625	0		0.46016375732421877	-2.359943603515625	0		-1.0460869140625	0.003361968994140625	0		-0.8450944213867188	-2.2797802734375	0		1.2489991455078124	-0.5948065185546875	0		2.98340771484375	-0.166270263671875	0		4.53744970703125	-0.16993763732910155	0		5.55829150390625	0.10678475189208984	0		-0.25067337036132814	5.89264208984375	0		
-3.0721700191497803E-4	0.0017724080085754395	0		0.48597821044921874	-2.3652236328125	0		-1.05845458984375	-0.007615719795227051	0		-0.884230712890625	-2.279477294921875	0		1.2318135986328125	-0.5906145629882813	0		2.956310546875	-0.1508876953125	0		4.524341796875	-0.15561399841308593	0		5.5580478515625	0.10903208923339844	0		-0.25024993896484377	5.8915751953125	0		
-5.729089975357055E-4	0.0017336920499801637	0		0.4838021545410156	-2.3672197265625	0		-1.0217216796875	-0.008072748184204101	0		-0.8504324951171875	-2.283896240234375	0		1.2285455322265626	-0.593566162109375	0		2.977970947265625	-0.15900888061523438	0		4.5310234375	-0.1615130157470703	0		5.54777783203125	0.10935030364990235	0		-0.2177198181152344	5.8981953125	0		
-0.007915200233459473	-0.005230163097381592	0		0.48160501098632813	-2.369214111328125	0		-1.0589925537109375	-0.007779915809631347	0		-0.8506132202148438	-2.28396435546875	0		1.2282965087890625	-0.59355029296875	0		2.9447158203125	-0.1575943298339844	0		4.5246875	-0.16830378723144532	0		5.55241064453125	0.1004913330078125	0		-0.25228898620605467	5.8924912109375	0		
-0.001125285029411316	0.0016708110570907593	0		0.46738873291015626	-2.371087646484375	0		-1.059271484375	-0.007845674991607666	0		-0.8408931274414062	-2.29212158203125	0		1.2419578857421876	-0.6016751098632812	0		2.96637158203125	-0.1647389373779297	0		4.52846337890625	-0.16321588134765624	0		5.557197265625	0.10760485076904297	0		-0.25079241943359376	5.89043359375	0		
0.006570734977722168	-4.324310123920441E-4	0		0.4712228698730469	-2.36613818359375	0		-1.047447021484375	0.002980259895324707	0		-0.8690004272460937	-2.28089404296875	0		1.2477603759765625	-0.5947230224609374	0		2.983368408203125	-0.13684654235839844	0		4.5322431640625	-0.15714869689941408	0		5.5609892578125	0.11570175170898438	0		-0.2843144836425781	5.883728515625	0		
0.0013339550495147705	0.0045974130630493165	0		0.48500115966796875	-2.365284423828125	0		-1.0188037719726561	-0.004349091053009033	0		-0.8482442016601562	-2.282140625	0		1.2305281982421874	-0.5905457763671875	0		2.96087939453125	-0.15757815551757812	0		4.5389013671875	-0.1631305694580078	0		5.55662158203125	0.1078524932861328	0		-0.2867089538574219	5.8867216796875	0		
-0.0019828259944915773	0.001612537980079651	0		0.4547582702636719	-2.3649951171875	0		-1.06012841796875	-0.00797864294052124	0		-0.8884880981445312	-2.281777099609375	0		1.2272222900390626	-0.59350830078125	0		2.960594970703125	-0.1575388946533203	0		4.53555810546875	-0.16903282165527345	0		5.551263671875	0.10098845672607422	0		-0.26816323852539065	5.880515625	0		
-0.002270052909851074	0.0016020439863204956	0		0.48046237182617185	-2.369254638671875	0		-1.06041552734375	-0.008003382682800294	0		-0.8537855834960938	-2.286143310546875	0		1.226943115234375	-0.5935022583007813	0		2.960309814453125	-0.15750950622558593	0		4.52733251953125	-0.16290391540527344	0		5.55097509765625	0.101052734375	0		-0.2534222717285156	5.891353515625	0		
-0.00962407398223877	-0.005336466789245605	0		0.427270263671875	-2.36173779296875	0		-1.0566619873046874	-0.0040603427886962895	0		-0.9239579467773438	-2.27647216796875	0		1.2405838623046874	-0.60163525390625	0		2.965153076171875	-0.14453886413574218	0		4.5319697265625	-0.17091751098632812	0		5.5557568359375	0.10804804992675782	0		-0.2527732391357422	5.890333984375	0		
1.9183899462223053E-4	0.004559112071990967	0		0.4839705810546875	-2.365300048828125	0		-1.0488753662109376	0.0028487019538879395	0		-0.8373283081054688	-2.28733642578125	0		1.23536474609375	-0.5955848388671875	0		2.971773681640625	-0.1545950164794922	0		4.533884765625	-0.15091664123535156	0		5.559552734375	0.1160360336303711	0		-0.21903315734863282	5.89599267578125	0		
